<?xml version="1.0" encoding="iso-8859-1"?>
<!DOCTYPE svg PUBLIC "-//W3C//DTD SVG 20000303 Stylable//EN"
"http://www.w3.org/TR/2000/03/WD-SVG-20000303/DTD/svg-20000303-stylable.dtd">

<svg width="5.1089in" height="3.6207in" viewBox="0 0 999 708" xmlns="http://www.w3.org/2000/svg">

<path style="fill:#80c080" d="M995,707 l0,-703 -991,0 0,703 991,0z" />
<path style="fill:#fff" d="M549,295 l1,1 0,0 1,0 1,1 0,1 2,0 1,1 2,1 1,1 2,1 2,1 3,2 2,1 2,2 3,1 3,2 3,2 2,1 4,2 3,2 3,2 4,2 3,2 4,2 3,2 4,3 4,2 4,2 4,3 5,3 4,2 4,2 4,3 5,3 4,2 5,3 5,3 4,3 5,3 5,2 5,3 5,3 4,3 5,3 5,3 6,3 5,3 4,3 6,3 5,3 5,3 5,3 5,3 5,3 5,3 5,3 5,3 5,3 5,3 5,3 5,3 5,3 5,3 5,3 5,3 4,3 5,2 5,3 5,3 4,3 4,3 5,2 4,3 4,3 5,2 4,3 4,2 4,2 4,3 3,2 4,2 4,2 3,2 3,3 3,2 4,2 3,1 3,2 2,2 3,1 2,2 2,1 3,2 2,1 2,1 1,1 2,1 1,1 2,1 1,1 1,1 3,2 4,3 3,2 3,3 2,3 3,3 2,4 3,3 2,4 2,3 1,4 2,4 1,4 1,4 1,4 0,4 1,4 0,5 0,4 -1,4 0,4 -1,4 -1,3 -1,4 -1,4 -2,3 -1,4 -2,3 -2,3 -2,3 -2,3 -3,3 -2,3 -3,3 -2,2 -3,2 -3,3 -3,2 -4,2 -3,2 -4,1 -3,2 -4,1 -3,1 -4,1 -4,1 -4,0 -4,0 -4,1 -343,0 -4,1 -3,3 -1,4 1,4 3,4 4,1 343,0 4,0 5,-1 4,0 4,-1 4,-1 4,-1 5,-1 4,-2 3,-1 4,-2 4,-2 4,-2 3,-2 4,-3 3,-2 3,-3 4,-3 3,-4 3,-3 2,-3 3,-4 2,-3 2,-4 2,-4 2,-4 2,-4 1,-4 1,-4 1,-4 1,-4 1,-4 0,-5 1,-4 0,-4 0,-5 -1,-4 0,-4 -1,-4 0,-5 -1,-3 -2,-4 -1,-4 -2,-4 -1,-4 -2,-4 -2,-3 -2,-4 -2,-3 -3,-3 -3,-3 -2,-3 -3,-3 -3,-3 -4,-3 -3,-3 -3,-2 -1,0 -1,-1 -2,-1 -1,-1 -2,-1 -1,-1 -2,-1 -2,-2 -3,-1 -2,-1 -2,-2 -3,-1 -3,-2 -2,-2 -3,-2 -3,-2 -4,-2 -3,-2 -3,-1 -4,-3 -3,-2 -4,-2 -4,-2 -3,-3 -4,-2 -4,-3 -5,-2 -4,-3 -4,-2 -4,-3 -5,-2 -4,-3 -5,-3 -4,-3 -5,-2 -5,-3 -4,-3 -5,-3 -5,-3 -5,-3 -4,-2 -5,-3 -5,-4 -5,-2 -5,-3 -5,-4 -5,-3 -5,-2 -5,-3 -5,-3 -5,-3 -5,-3 -5,-3 -5,-3 -5,-3 -5,-3 -5,-3 -5,-3 -5,-3 -5,-3 -5,-3 -4,-3 -5,-2 -5,-3 -4,-3 -5,-3 -4,-2 -5,-3 -4,-3 -5,-2 -4,-3 -4,-2 -4,-3 -4,-2 -4,-3 -4,-2 -4,-2 -4,-2 -4,-2 -3,-2 -3,-3 -4,-2 -3,-1 -3,-2 -3,-2 -3,-2 -3,-1 -2,-2 -2,-1 -3,-2 -2,-1 -2,-1 -2,-1 -2,-1 -1,-1 -2,-1 -1,-1 -1,-1 -2,0 0,-1 -1,0 -1,0 -4,-2 -4,1 -3,4 -1,4 1,4 3,3z" />
<path style="fill:#fff" d="M480,652 l-342,0 -5,-1 -4,0 -4,-1 -4,0 -4,-1 -5,-2 -3,-1 -4,-2 -4,-2 -4,-2 -3,-2 -4,-3 -3,-3 -3,-2 -3,-4 -3,-3 -2,-3 -2,-4 -3,-4 -2,-3 -1,-4 -2,-4 -1,-4 -1,-4 -1,-4 -1,-5 0,-4 0,-4 0,-5 1,-4 0,-5 1,-4 1,-5 1,-3 2,-4 2,-4 2,-4 2,-4 2,-3 3,-4 2,-3 4,-3 3,-3 3,-3 4,-2 1,-1 1,-1 1,-1 2,-1 1,-1 2,-1 2,-1 2,-1 2,-2 2,-1 3,-2 2,-1 3,-2 3,-1 3,-2 3,-2 3,-2 4,-2 3,-2 4,-2 3,-3 4,-2 4,-2 4,-3 4,-2 4,-2 4,-3 4,-3 5,-2 4,-3 4,-3 5,-2 5,-3 4,-3 5,-3 5,-2 4,-3 5,-3 5,-3 5,-3 5,-3 5,-3 5,-3 5,-3 5,-3 5,-3 5,-3 5,-3 5,-3 6,-3 5,-3 5,-4 5,-2 5,-3 5,-3 5,-3 5,-3 5,-3 5,-3 5,-3 5,-3 4,-3 5,-3 5,-3 5,-2 4,-3 5,-3 4,-3 5,-2 4,-3 4,-2 5,-3 4,-2 4,-3 4,-2 4,-2 3,-3 4,-2 4,-2 3,-2 4,-2 3,-2 3,-2 3,-2 3,-1 3,-2 3,-2 2,-1 3,-2 2,-1 2,-1 2,-2 2,-1 2,-1 1,-1 2,0 1,-1 1,-1 1,0 1,-1 0,0 0,0 1,-1 3,-3 1,-4 -1,-4 -4,-3 -4,-2 -4,2 -1,0 0,0 -1,1 -1,0 -1,1 -1,1 -2,1 -1,1 -2,1 -2,1 -2,1 -2,2 -3,1 -2,1 -3,2 -3,1 -3,2 -2,2 -3,2 -4,1 -3,2 -3,2 -4,3 -3,2 -4,2 -4,2 -4,2 -4,3 -4,2 -4,3 -4,2 -4,3 -4,2 -5,3 -4,3 -5,2 -5,3 -4,3 -5,2 -4,3 -5,3 -5,3 -5,3 -5,3 -4,3 -5,3 -5,2 -6,3 -4,3 -5,3 -5,3 -5,3 -5,3 -5,3 -5,3 -5,3 -5,3 -5,3 -5,3 -5,3 -5,3 -5,3 -5,3 -5,3 -4,2 -5,3 -5,3 -5,3 -4,3 -5,3 -4,2 -5,3 -4,3 -4,2 -5,3 -4,2 -4,3 -4,2 -4,3 -4,2 -4,2 -3,2 -4,3 -3,2 -3,2 -4,2 -3,2 -3,1 -3,2 -3,2 -3,2 -2,1 -2,2 -3,1 -2,2 -2,1 -2,1 -2,1 -1,1 -2,1 -1,1 -1,1 -1,0 -3,3 -4,2 -2,3 -3,3 -3,3 -3,3 -3,3 -2,3 -3,4 -2,3 -2,4 -1,3 -2,4 -1,4 -2,4 -1,4 -1,4 -1,4 0,4 -1,4 0,4 0,5 0,4 0,4 1,5 0,4 1,4 1,4 2,4 1,4 1,4 2,4 2,4 2,4 3,3 2,4 3,3 3,3 3,4 3,3 3,3 3,2 4,3 4,2 3,2 4,2 4,2 4,1 4,2 4,1 4,1 4,1 5,1 4,0 4,1 5,0 0,0 0,0 1,0 1,0 1,0 2,0 2,0 2,0 2,0 3,0 2,0 3,0 3,0 4,0 3,0 4,0 4,0 4,0 5,0 4,0 4,0 5,0 5,0 5,0 5,0 6,0 5,0 6,0 5,0 6,0 5,0 6,0 6,0 6,0 6,0 6,0 6,0 7,0 6,0 6,0 6,0 6,0 6,0 6,0 7,0 6,0 6,0 6,0 6,0 6,0 6,0 6,0 5,0 6,0 6,0 5,0 6,0 5,0 5,0 5,0 5,0 5,0 4,0 5,0 4,0 4,0 4,0 4,0 3,0 4,0 3,0 3,0 3,0 2,0 3,0 1,0 2,0 2,0 1,0 1,0 1,0 0,0 5,-1 3,-3 1,-4 -1,-5 -3,-3 -5,-1z" />
<path style="fill:#fff" d="M481,256 l-1,-5 0,-5 -2,-5 -2,-4 -2,-3 -2,-4 -3,-3 -3,-2 -3,-3 -4,-3 -3,-2 -4,-3 -2,-1 -3,-2 -2,-2 -3,-1 -2,-2 -3,-3 -2,-2 -2,-2 -3,-3 -2,-2 -2,-3 -2,-3 -2,-4 -1,-3 -2,-4 -1,-4 -1,-5 -1,-5 -1,-5 -1,-5 0,-6 0,-7 0,-4 0,-5 1,-4 0,-5 1,-4 1,-4 1,-5 2,-4 1,-3 1,-4 2,-4 2,-3 2,-4 3,-3 2,-3 3,-3 3,-3 4,-4 4,-3 4,-3 4,-3 5,-3 4,-2 5,-2 4,-2 4,-2 5,-1 4,-1 4,-1 4,-1 4,-1 3,-1 4,0 3,-1 2,0 3,0 2,0 3,0 2,0 3,1 3,0 4,1 4,1 4,1 4,1 4,1 4,2 4,1 5,2 4,2 4,2 5,3 4,2 4,3 4,3 4,4 3,3 3,3 3,3 3,4 2,4 2,3 2,4 2,4 1,4 1,4 1,4 1,5 0,4 0,5 0,8 -2,4 -2,3 -3,2 -2,3 -1,5 1,4 3,3 4,1 5,-1 3,-3 4,-3 2,-3 2,-4 2,-4 1,-4 1,-6 0,-5 0,-5 -1,-4 0,-5 -1,-4 -1,-4 -1,-4 -1,-4 -2,-4 -2,-4 -2,-4 -2,-4 -2,-4 -3,-3 -3,-4 -3,-3 -2,-3 -4,-4 -4,-4 -5,-3 -4,-3 -4,-2 -4,-3 -5,-2 -4,-3 -5,-2 -4,-2 -4,-2 -5,-1 -4,-1 -4,-2 -4,-1 -4,-1 -3,0 -4,-1 -3,-1 -3,0 -3,0 -3,-1 -2,0 -2,0 -2,1 -2,0 -3,0 -2,0 -3,0 -2,1 -3,0 -2,1 -3,0 -3,1 -3,1 -3,0 -3,1 -3,1 -3,1 -3,1 -3,1 -3,2 -4,1 -3,2 -3,1 -3,2 -3,2 -3,2 -3,2 -3,2 -3,2 -3,2 -3,2 -2,3 -3,3 -3,2 -2,3 -2,4 -3,3 -2,3 -2,3 -2,4 -2,4 -2,3 -1,5 -2,4 -1,4 -1,4 -1,5 -1,5 -1,5 0,5 0,5 -1,5 1,7 0,6 1,6 0,5 1,6 1,4 2,5 1,4 2,4 2,4 1,4 2,3 2,4 3,2 2,3 2,3 2,2 3,2 2,3 2,2 3,2 2,1 3,2 2,2 3,1 2,2 5,3 4,4 4,2 2,3 3,3 1,4 1,4 1,4 1,5 3,3 4,1 4,-1 4,-3 1,-5z" />
<path style="fill:#fff" d="M599,146 l-3,1 -3,1 -4,2 -1,1 -1,1 -1,0 0,0 1,0 1,0 -3,-1 -4,-1 -4,-3 -2,-3 -1,-3 -1,-5 0,-4 -1,-4 -1,-4 -2,-4 -1,-4 -3,-4 -3,-4 -3,-4 -3,-3 -4,-4 -3,-3 -4,-2 -3,-3 -4,-2 -4,-1 -4,-2 -4,-1 -4,-1 -4,0 -4,-1 -5,0 -4,1 -4,0 -4,1 -4,1 -4,1 -3,2 -4,1 -3,2 -3,2 -3,2 -3,3 -2,2 -2,3 -3,3 -2,2 -2,4 -1,3 -2,3 -1,4 -1,4 -1,4 0,4 -1,4 0,4 0,5 1,5 1,5 1,3 2,4 2,4 2,4 2,3 3,3 3,3 2,3 3,3 3,2 3,3 4,3 3,2 3,2 3,3 4,2 2,3 4,3 3,2 3,3 2,3 3,3 2,3 2,3 2,4 2,4 1,4 1,4 1,5 0,5 1,4 3,4 4,1 5,-1 3,-4 1,-4 0,-5 -1,-5 0,-5 -1,-4 -2,-5 -1,-4 -2,-4 -2,-3 -2,-4 -3,-3 -2,-3 -3,-3 -2,-3 -3,-2 -3,-3 -3,-2 -3,-3 -3,-2 -3,-3 -3,-2 -4,-2 -3,-3 -4,-3 -3,-3 -3,-3 -3,-3 -3,-3 -2,-3 -2,-4 -1,-3 -1,-4 -1,-4 0,-5 0,-5 1,-5 1,-5 1,-4 2,-5 2,-3 3,-3 4,-3 3,-3 4,-1 4,-2 4,-1 5,-1 4,-1 6,0 4,0 5,1 4,2 4,2 5,2 4,3 4,4 4,4 3,5 3,5 1,5 1,4 0,6 1,5 2,5 2,4 4,3 4,4 5,3 5,2 5,1 4,0 3,0 3,-2 4,-2 1,-1 2,-1 2,0 -1,0 4,-2 3,-4 0,-4 -2,-4 -3,-3 -5,0z" />
<path style="fill:#fff" d="M864,532 l0,0 -1,-1 -1,0 -2,-1 -1,-1 -2,-1 -1,-1 -2,-1 -2,-1 -3,-1 -2,-2 -2,-1 -3,-2 -2,-1 -3,-2 -3,-2 -3,-1 -3,-2 -4,-2 -3,-2 -4,-3 -3,-2 -4,-2 -4,-2 -4,-2 -4,-2 -4,-3 -4,-2 -4,-3 -5,-2 -4,-3 -5,-3 -4,-2 -5,-3 -4,-2 -5,-3 -5,-3 -5,-3 -5,-3 -4,-3 -5,-2 -5,-3 -5,-3 -6,-3 -5,-3 -4,-3 -6,-3 -5,-3 -5,-3 -5,-3 -5,-3 -5,-3 -5,-2 -5,-3 -5,-3 -5,-3 -5,-3 -5,-3 -5,-3 -5,-3 -5,-3 -5,-2 -5,-3 -4,-3 -5,-3 -5,-2 -4,-3 -5,-3 -4,-2 -5,-3 -4,-2 -5,-3 -3,-2 -5,-2 -4,-3 -4,-2 -4,-2 -3,-2 -4,-2 -3,-3 -4,-2 -3,-1 -3,-2 -3,-2 -3,-2 -3,-1 -3,-2 -2,-1 -3,-2 -2,-1 -2,-1 -2,-1 -2,-1 -2,-1 -1,-1 -2,-1 -1,-1 -1,0 -1,-1 0,0 -1,-1 -3,-1 -2,0 -3,1 -1,1 0,0 -1,1 -1,0 -2,1 -1,1 -1,1 -2,1 -2,1 -2,1 -2,1 -2,2 -3,1 -2,2 -3,1 -3,2 -3,1 -3,2 -3,2 -3,2 -4,2 -3,2 -4,2 -3,3 -4,2 -4,2 -4,3 -4,2 -4,3 -4,2 -5,2 -4,3 -5,3 -4,2 -5,3 -4,3 -5,3 -5,3 -5,2 -4,3 -5,3 -5,3 -5,3 -5,3 -5,3 -5,3 -5,3 -5,3 -5,3 -5,3 -5,3 -5,3 -5,3 -5,3 -5,3 -6,3 -4,3 -5,3 -5,3 -5,3 -5,3 -5,3 -5,2 -5,3 -4,3 -5,3 -5,3 -4,2 -5,3 -4,3 -5,2 -4,3 -5,3 -3,2 -5,3 -4,2 -4,2 -3,2 -4,3 -4,2 -3,2 -4,2 -3,2 -3,2 -3,2 -3,2 -3,1 -3,2 -2,1 -3,2 -2,1 -2,1 -2,2 -2,1 -2,1 -1,1 -2,1 -1,0 -1,1 -1,1 -1,0 -3,3 -1,5 2,4 3,3 4,1 5,-1 0,0 1,-1 1,-1 2,-1 1,0 2,-1 1,-1 2,-2 2,-1 2,-1 3,-2 2,-1 3,-2 3,-1 3,-2 3,-2 3,-2 3,-2 3,-2 4,-2 3,-2 4,-2 4,-2 4,-3 4,-2 4,-3 4,-2 4,-3 5,-3 4,-2 5,-3 4,-2 5,-3 5,-3 4,-3 5,-3 5,-3 5,-3 5,-2 5,-3 5,-3 5,-3 5,-3 5,-3 5,-3 5,-4 5,-3 5,-3 5,-3 6,-3 5,-3 5,-3 5,-3 5,-3 5,-3 5,-3 5,-3 5,-3 5,-3 5,-3 5,-3 5,-3 5,-2 4,-3 5,-3 5,-3 4,-2 5,-3 4,-3 5,-2 4,-3 4,-2 4,-3 4,-2 4,-3 4,-2 4,-2 3,-2 4,-2 3,-2 4,-2 3,-2 3,-2 3,-2 3,-1 2,-2 3,-2 2,-1 2,-1 3,-2 1,-1 2,-1 2,-1 1,-1 1,0 1,-1 1,0 1,-1 1,0 0,0 0,-1 -3,2 -2,0 -3,-1 0,0 1,0 1,1 1,0 1,1 1,0 1,1 2,1 2,1 2,1 2,2 2,1 3,1 2,2 3,1 3,2 3,2 3,2 3,2 4,2 3,2 4,2 4,2 3,2 4,2 4,2 4,3 5,2 4,3 4,2 5,3 4,3 5,2 5,3 4,2 5,3 5,3 5,3 5,3 5,3 5,3 5,3 5,2 5,3 5,3 5,3 5,3 5,3 6,3 5,4 5,3 5,2 6,3 5,3 5,3 5,3 5,3 5,3 5,3 6,3 5,3 5,3 4,3 5,3 5,3 5,2 5,3 4,3 5,3 4,2 5,2 4,3 4,2 4,3 4,2 4,3 4,2 4,2 4,2 4,3 3,2 3,1 3,2 3,2 3,2 3,1 3,2 3,1 2,2 2,1 2,1 2,2 2,1 1,1 2,1 1,0 1,1 1,1 1,0 4,1 4,0 4,-3 1,-5 -1,-4 -3,-4z" />
<path style="fill:#fff" d="M880,573 l-1,5 -2,4 -2,3 -4,3 -4,2 -4,1 -353,0 -25,0 -347,0 -5,-1 -4,-2 -4,-2 -2,-4 -2,-4 -1,-5 -1,-4 -3,-3 -5,-2 -4,2 -3,3 -1,4 0,6 2,5 1,5 3,5 4,4 4,4 5,2 5,2 5,2 6,0 347,0 25,0 353,0 5,0 5,-2 5,-2 5,-2 4,-4 3,-4 3,-5 2,-5 2,-5 0,-6 -1,-4 -3,-3 -4,-2 -5,2 -3,3 -1,4z" />

</svg>
