<?xml version="1.0"?><svg width="249.70699" height="299.84564" xmlns="http://www.w3.org/2000/svg">

 <metadata id="metadata2420">image/svg+xml</metadata>
 <g>
  <title>Layer 1</title>
  <g id="layer1">
   <g id="g2460">
    <path fill="none" fill-rule="evenodd" stroke="#000000" stroke-width="1px" d="m16.237167,77.274994l-4.511591,179.58725l64.515642,31.483154l-14.437077,-201.315041l7.21854,-6.20797l-52.785515,-3.547394z" id="path2451"/>
    <path fill="none" fill-rule="evenodd" stroke="#000000" stroke-width="1px" d="m76.241219,287.901978l161.965797,-66.513748l-4.962753,-164.510803l-170.988968,29.26606l13.985924,201.758492z" id="path2453"/>
    <path fill="none" fill-rule="evenodd" stroke="#000000" stroke-width="1px" d="m75.338882,287.458557l-8.284744,-30.857513l-4.347664,-40.53392l0.902309,-107.308937" id="path2471"/>
    <g id="g3854">
     <path fill="none" fill-rule="evenodd" stroke="#000000" stroke-width="1px" id="path2457" d="m16.688349,76.831573l173.244711,-24.388397l-1.353455,8.425076l45.115845,-4.434246"/>
     <path fill="none" fill-rule="evenodd" stroke="#000000" stroke-width="1px" id="path2461" d="m62.706448,102.993652l171.440159,-32.813469"/>
     <path fill="none" fill-rule="evenodd" stroke="#000000" stroke-width="1px" id="path2463" d="m75.338913,263.957031l162.416916,-62.96637"/>
     <path fill="none" fill-rule="evenodd" stroke="#000000" stroke-width="1px" id="path2465" d="m11.5,255.753677l22.542709,-15.599991l28.663738,-23.864853"/>
     <path fill="none" fill-rule="evenodd" stroke="#000000" stroke-width="3" marker-start="none" stroke-miterlimit="4" stroke-dasharray="1.5, 1.5" stroke-dashoffset="0" id="path2477" d="m98.009583,64.859077c-1.010406,-14.816067 7.604042,-33.093178 22.445122,-41.238558c1.915916,-0.941523 4.002045,-1.199133 6.316231,-1.773695c2.460205,-0.610817 7.969788,-0.43042 9.135925,0.665144c11.727539,7.447418 16.868546,21.167124 18.159134,34.476313"/>Boutique
     <path fill="#452d3a" stroke-width="0.3" stroke-miterlimit="4" id="path2493" d="m76.686447,285.60434c0,-0.719086 -0.311119,-5.655975 -0.69136,-10.970856c-0.38028,-5.314911 -0.580757,-9.772217 -0.445534,-9.90509c0.477997,-0.469818 161.030739,-62.57283 161.238762,-62.368378c0.116058,0.11412 0.304672,4.353226 0.418884,9.420166l0.207748,9.212662l-79.574707,32.666611c-43.766113,17.966614 -79.930046,32.79837 -80.364288,32.959442c-0.640762,0.237701 -0.789505,0.046539 -0.789505,-1.014557l0,0z"/>
     <path fill="none" fill-rule="evenodd" stroke="#000000" stroke-width="1px" id="path3269" d="m16.237194,91.908028l46.018101,2.660545"/>
     <path fill="none" fill-rule="evenodd" stroke="#000000" stroke-width="1px" id="path3271" d="m11.725605,235.57782l20.302101,4.877686l35.641483,16.850159l7.218544,8.8685"/>
     <path fill="none" fill-rule="evenodd" stroke="#000000" stroke-width="1px" id="path3275" d="m188.309433,60.865475l0,3.605808"/>
     <path fill="#544164" stroke-width="0.3" stroke-miterlimit="4" d="m130.831345,95.898849a1.748238,1.662843 0 1 1 -3.496452,0a1.748238,1.662843 0 1 1 3.496452,0z" id="path3277"/>
     <path fill="#544164" stroke-width="0.3" stroke-miterlimit="4" d="m185.083084,84.868645a1.353477,1.49656 0 1 1 -2.706909,0a1.353477,1.49656 0 1 1 2.706909,0z" id="path3279"/>
     <path fill="#452d3a" stroke-width="0.3" stroke-miterlimit="4" id="path3287" d="m36.362179,92.356163c-9.825733,-0.612251 -18.223869,-1.137482 -18.662533,-1.167175c-0.584484,-0.039558 -0.797543,-1.83197 -0.797543,-6.709709l0,-6.655724l2.711649,0.36071c1.491438,0.198395 12.617136,0.978905 24.72381,1.734467c12.106705,0.755562 22.120041,1.460281 22.251839,1.56601c0.131744,0.105743 -0.689384,0.960579 -1.824921,1.899643c-3.936142,3.255295 -3.941818,3.266571 -3.481236,6.889915l0.428204,3.369102l-3.742142,-0.087013c-2.058174,-0.047874 -11.781425,-0.587959 -21.607128,-1.200211l0,-0.000015z"/>
     <path fill="#452d3a" stroke-width="0.3" stroke-miterlimit="4" id="path3289" d="m42.744282,271.210449l-30.623772,-14.889526l10.439453,-7.277832l10.439373,-7.277832l11.251934,5.339996c6.188522,2.937027 13.737564,6.468506 16.775635,7.847733l5.523724,2.507706l1.003868,3.847015c0.552162,2.115875 2.274513,8.573792 3.827576,14.350922c1.552971,5.77713 2.635201,10.489807 2.404869,10.472626c-0.230331,-0.017212 -14.199512,-6.731567 -31.04266,-14.920807z"/>
     <path fill="#452d3a" stroke-width="0.3" stroke-miterlimit="4" id="path3291" d="m12.739851,245.650131c0.257429,-4.793152 0.517806,-8.769852 0.578616,-8.837112c0.167854,-0.185623 17.037566,4.043686 17.348517,4.349304c0.14905,0.1465 -2.241079,1.981705 -5.311359,4.078278c-3.070282,2.096542 -7.270142,5.007233 -9.333019,6.468124l-3.75071,2.656204l0.467955,-8.714798z"/>
     <path fill="#452d3a" stroke-width="0.3" stroke-miterlimit="4" id="path3293" d="m71.866325,271.647491c-1.49678,-5.54187 -2.595367,-10.200043 -2.441315,-10.35144c0.15403,-0.151398 1.207474,0.875519 2.340889,2.282104c1.952194,2.422607 2.092812,2.956421 2.668198,10.128571c0.333984,4.164185 0.505234,7.671448 0.380585,7.794037c-0.124741,0.122559 -1.451469,-4.311401 -2.948303,-9.853271l-0.000053,0z"/>
     <path fill="#452d3a" stroke-width="0.3" stroke-miterlimit="4" id="path3295" d="m63.872635,97.87632c-0.719318,-8.159317 -0.935799,-11.130997 -0.811008,-11.130997c0.070827,0 38.014233,-6.490463 84.31847,-14.423256c46.30423,-7.932785 84.392181,-14.423256 84.639816,-14.423256c0.247528,0 0.541611,2.68148 0.653442,5.958839c0.111771,3.277374 0.031052,5.958206 -0.179596,5.957428c-0.210587,-0.000748 -37.966217,7.194351 -83.901474,15.989143c-45.935196,8.794785 -83.711075,15.990746 -83.946335,15.99099c-0.23526,0.000259 -0.583206,-1.763237 -0.773315,-3.918892z"/>
     <path fill="#f9f9f9" stroke-width="0.3" stroke-miterlimit="4" id="path3303" d="m23.195272,237.701172c-5.275614,-1.283615 -9.735545,-2.47496 -9.911021,-2.6474c-0.235897,-0.231827 2.969245,-142.123077 3.217605,-142.442093c0.061033,-0.078384 45.146112,2.560646 45.217772,2.646812c0.031994,0.038483 0.308838,3.761505 0.615227,8.273346c0.414989,6.110909 0.485313,19.457436 0.275814,52.324196c-0.154667,24.266449 -0.402637,47.758804 -0.551018,52.205215l-0.26981,8.084396l-14.363194,11.980621c-7.899773,6.589294 -14.425335,11.964417 -14.501278,11.944687c-0.075947,-0.019714 -4.454454,-1.086136 -9.730097,-2.369751l0,-0.000031z"/>
     <path fill="#f9f9f9" stroke-width="0.3" stroke-miterlimit="4" id="path3305" d="m71.093315,260.425903c-1.217346,-1.511719 -2.487045,-3.122009 -2.821587,-3.57843c-0.396683,-0.541199 -1.364395,-7.877441 -2.781967,-21.090317l-2.173679,-20.260422l0.400162,-41.632065c0.22007,-22.897598 0.458218,-41.689102 0.529179,-41.758835c0.070969,-0.069763 2.23555,29.297028 4.810165,65.259583c2.574615,35.962524 4.584366,65.481506 4.46608,65.597717c-0.118256,0.116241 -1.211006,-1.025513 -2.428352,-2.537231l0,0z"/>
     <path fill="#f9f9f9" stroke-width="0.3" stroke-miterlimit="4" id="path3307" d="m50.277557,248.374924c-8.742554,-4.149475 -15.815796,-7.622818 -15.718323,-7.718597c0.097473,-0.09581 6.336845,-5.316422 13.86525,-11.601425c9.251842,-7.72374 13.728382,-11.197754 13.812366,-10.719025c0.20549,1.171234 4.083279,37.509705 4.006886,37.54805c-0.038887,0.019501 -7.223682,-3.359558 -15.966179,-7.509003l0,0z"/>
     <path fill="#f9f9f9" stroke-width="0.3" stroke-miterlimit="4" id="path3309" d="m67.75206,82.784393c1.364754,-1.218956 2.379868,-2.305138 2.255798,-2.413712c-0.124069,-0.108574 -10.173626,-0.83667 -22.332348,-1.617973c-12.158695,-0.781319 -22.918808,-1.54644 -23.911358,-1.700287c-1.293039,-0.200424 12.712524,-2.32222 49.401802,-7.48423c28.163544,-3.962494 51.940483,-7.318195 52.837677,-7.45713l1.631195,-0.252617l0.324471,6.01825c0.17849,3.310028 0.250633,6.090843 0.160362,6.179565c-0.090271,0.088722 -13.659142,2.469681 -30.153084,5.291008c-16.493889,2.82135 -30.597984,5.247543 -31.3424,5.391579c-1.27401,0.24649 -1.207809,0.13176 1.127884,-1.954437l0,-0.000015z"/>
     <path fill="#f9f9f9" stroke-width="0.3" stroke-miterlimit="4" id="path3311" d="m129.333069,68.833817c-0.174194,-2.743698 -0.244965,-5.487392 -0.157288,-6.097103l0.159393,-1.108566l25.490417,-3.609566c14.01976,-1.985249 25.629517,-3.481815 25.799484,-3.325684c0.420273,0.386047 1.465454,9.773258 1.125351,10.107517c-0.241119,0.237 -50.294098,8.979897 -51.581238,9.00985c-0.343506,0.007988 -0.626678,-1.677483 -0.836121,-4.976448l0,0z"/>
     <path fill="#f9f9f9" stroke-width="0.3" stroke-miterlimit="4" id="path3313" d="m182.828827,59.763733c-0.298874,-2.61068 -0.630081,-4.884491 -0.736008,-5.052925c-0.291321,-0.463196 0.690155,-0.723007 4.077957,-1.07959l3.079407,-0.324123l-0.283188,1.056553c-0.15567,0.581104 -0.528824,2.984581 -0.829086,5.341042c-0.53862,4.226974 -0.563766,4.288013 -1.871719,4.545113c-2.914215,0.572861 -2.848282,0.65892 -3.437363,-4.486069l0,0z"/>
     <path fill="#e0e0e0" stroke-width="0.3" stroke-miterlimit="4" id="path3315" d="m189.113647,62.515003c0,-0.609711 0.152222,-1.10881 0.338333,-1.109127c0.186096,-0.000301 5.408554,-0.50811 11.605362,-1.128441c6.196915,-0.620346 11.779999,-1.069057 12.40686,-0.99715c0.889893,0.102066 -22.632675,4.360001 -24.012222,4.346577c-0.186111,-0.001804 -0.338333,-0.502148 -0.338333,-1.111858z"/>
     <path fill="#e0e0e0" stroke-width="0.3" stroke-miterlimit="4" id="path3317" d="m22.418621,237.528259c-5.088343,-1.231827 -9.294324,-2.273453 -9.346678,-2.314713c-0.20079,-0.158249 3.492949,-142.210503 3.702364,-142.385063c0.121563,-0.101311 10.30142,0.393082 22.621876,1.098663l22.400837,1.282898l0.408871,6.568108c0.530823,8.526924 0.522476,55.43045 -0.01569,88.422333l-0.422894,25.924057l-14.213753,11.858582c-7.817547,6.522263 -14.589409,11.842056 -15.048573,11.821762c-0.459167,-0.020279 -4.998018,-1.044739 -10.086361,-2.276596l0,-0.000031z"/>
     <path fill="#e0e0e0" stroke-width="0.3" stroke-miterlimit="4" id="path3319" d="m49.613537,248.084671l-15.234398,-7.327347l13.639313,-11.358795c10.782368,-8.979523 13.730942,-11.144211 14.076942,-10.334564c0.240685,0.563324 1.186413,8.50238 2.101543,17.642319c0.915138,9.139954 1.768005,17.111938 1.895248,17.715515c0.127235,0.603592 -0.1007,1.073318 -0.506485,1.043839c-0.405785,-0.029465 -7.593277,-3.350891 -15.972164,-7.380966l0,0z"/>
     <path fill="#e0e0e0" stroke-width="0.3" stroke-miterlimit="4" id="path3323" d="m70.462708,259.629761l-2.679688,-3.233887l-2.223999,-20.662231l-2.224052,-20.662231l0.428566,-42.329147c0.235676,-23.280991 0.504623,-41.482529 0.597641,-40.447815c0.913353,10.160843 9.105522,128.253159 8.966125,129.248611c-0.1567,1.118652 -0.594666,0.826172 -2.864616,-1.9133l0.000023,0z"/>
     <path fill="none" fill-rule="evenodd" stroke="#000000" stroke-width="3.5" marker-start="none" stroke-miterlimit="4" stroke-dasharray="1.75, 1.75" stroke-dashoffset="0" id="path2475" d="m129.037415,96.983139c2.463837,-27.579132 -8.299965,-52.162151 10.917648,-68.749176c3.880554,-3.349346 6.808945,-5.733942 14.337158,-6.168039c9.734543,0.200411 13.230545,2.711815 16.560089,7.135941c10.066467,13.37586 12.394897,32.186598 12.302536,50.564272c0,1.829628 0.450989,4.042778 0.450989,6.049217"/></g>
   </g>
  </g>
 </g>
</svg>